<?xml version="1.0" standalone="no"?>
<!DOCTYPE svg PUBLIC "-//W3C//DTD SVG 20010904//EN"
 "http://www.w3.org/TR/2001/REC-SVG-20010904/DTD/svg10.dtd">
<svg version="1.0" xmlns="http://www.w3.org/2000/svg"
 width="915.000000pt" height="1280.000000pt" viewBox="0 0 915.000000 1280.000000"
 preserveAspectRatio="xMidYMid meet">
<metadata>
Created by potrace 1.15, written by Peter Selinger 2001-2017
</metadata>
<g transform="translate(0.000000,1280.000000) scale(0.100000,-0.100000)"
fill="#fff" stroke="none">
<path d="M4225 12790 c-670 -39 -1301 -225 -1825 -540 -582 -349 -1041 -836
-1442 -1529 -480 -830 -785 -1880 -902 -3106 -39 -401 -50 -666 -50 -1185 -1
-507 4 -635 40 -1035 120 -1346 502 -2514 1142 -3490 738 -1127 1679 -1738
2897 -1881 209 -25 725 -25 945 -1 984 110 1768 487 2426 1169 732 760 1260
1859 1509 3138 206 1064 242 2391 94 3545 -183 1434 -659 2636 -1390 3510
-849 1013 -2010 1486 -3444 1405z m608 -3014 c49 -14 112 -38 140 -53 344
-173 594 -583 756 -1238 160 -647 223 -1433 201 -2520 -25 -1221 -126 -1845
-374 -2320 -183 -352 -398 -540 -714 -627 -109 -30 -411 -32 -522 -4 -320 82
-541 283 -725 661 -198 406 -306 937 -355 1750 -29 476 -29 1442 0 1905 52
830 164 1408 350 1797 184 385 415 590 750 664 130 29 372 22 493 -15z"/>
</g>
</svg>
