<?xml version="1.0" standalone="no"?>
<!DOCTYPE svg PUBLIC "-//W3C//DTD SVG 20010904//EN"
 "http://www.w3.org/TR/2001/REC-SVG-20010904/DTD/svg10.dtd">
<svg version="1.0" xmlns="http://www.w3.org/2000/svg"
 width="640.000000pt" height="1280.000000pt" viewBox="0 0 915.000000 1280.000000"
 preserveAspectRatio="xMidYMid meet">
<metadata>
Created by potrace 1.15, written by Peter Selinger 2001-2017
</metadata>
<g transform="translate(0.000000,1280.000000) scale(0.100000,-0.100000)"
fill="#ffffff" stroke="none">
<path d="M3073 10957 l-2912 -1842 -1 -80 0 -80 371 -645 c203 -355 454 -790
556 -968 l185 -323 442 225 c376 191 1315 664 1339 674 4 2 7 -1779 7 -3957
l0 -3961 103 0 c64 0 196 13 348 35 243 34 708 100 1519 214 234 33 587 83
785 111 198 27 375 52 393 55 l32 6 0 6189 0 6190 -127 -1 -128 -1 -2912
-1841z"/>
</g>
</svg>
