<?xml version="1.0" standalone="no"?>
<!DOCTYPE svg PUBLIC "-//W3C//DTD SVG 20010904//EN"
 "http://www.w3.org/TR/2001/REC-SVG-20010904/DTD/svg10.dtd">
<svg version="1.0" xmlns="http://www.w3.org/2000/svg"
 width="958.000000pt" height="1280.000000pt" viewBox="0 0 958.000000 1280.000000"
 preserveAspectRatio="xMidYMid meet">
<metadata>
Created by potrace 1.15, written by Peter Selinger 2001-2017
</metadata>
<g transform="translate(0.000000,1280.000000) scale(0.100000,-0.100000)"
fill="#ffffff" stroke="none">
<path d="M4240 12794 c-25 -2 -106 -8 -180 -14 -1114 -89 -2130 -567 -2915
-1371 -545 -559 -874 -1199 -1009 -1969 -83 -465 -83 -1057 -1 -1610 98 -667
339 -1314 675 -1815 301 -448 692 -817 1170 -1105 128 -77 538 -290 559 -290
9 0 1896 2515 1906 2541 4 11 -49 41 -202 116 -245 120 -364 197 -487 313
-229 217 -347 469 -375 801 -34 394 83 721 362 1016 218 230 479 343 795 343
419 0 738 -153 969 -466 116 -157 200 -358 239 -569 26 -140 26 -499 0 -670
-57 -373 -179 -662 -449 -1065 -129 -193 -1818 -2407 -2791 -3660 -1362 -1753
-2021 -2559 -2380 -2908 l-126 -122 0 -145 0 -145 4404 0 c4186 0 4405 1 4410
18 3 9 46 170 95 357 49 187 140 529 201 760 61 231 151 571 200 755 49 184
129 489 179 677 90 337 91 344 91 458 l0 115 -1697 2 -1696 3 164 170 c1282
1329 2209 2718 2604 3900 117 354 182 640 227 1010 19 163 16 674 -6 895 -69
699 -247 1266 -556 1777 -362 596 -910 1086 -1566 1399 -553 265 -1153 415
-1914 480 -163 14 -798 27 -900 18z"/>
</g>
</svg>
