<?xml version="1.0" standalone="no"?>
<!DOCTYPE svg PUBLIC "-//W3C//DTD SVG 20010904//EN"
 "http://www.w3.org/TR/2001/REC-SVG-20010904/DTD/svg10.dtd">
<svg version="1.0" xmlns="http://www.w3.org/2000/svg"
 width="912.000000pt" height="1280.000000pt" viewBox="0 0 912.000000 1280.000000"
 preserveAspectRatio="xMidYMid meet">
<metadata>
Created by potrace 1.15, written by Peter Selinger 2001-2017
</metadata>
<g transform="translate(0.000000,1280.000000) scale(0.100000,-0.100000)"
fill="#ffffff" stroke="none">
<path d="M4290 12794 c-30 -2 -125 -8 -210 -14 -1022 -72 -1923 -384 -2679
-927 -471 -339 -903 -767 -1297 -1285 l-105 -138 3 -87 3 -87 1184 -793 c651
-436 1188 -793 1192 -793 5 0 53 66 108 148 128 188 211 291 337 417 283 281
615 467 968 541 165 34 437 44 576 20 348 -60 670 -280 814 -555 130 -251 137
-616 16 -878 -48 -104 -84 -156 -161 -233 -175 -174 -448 -285 -788 -320 -61
-6 -376 -10 -767 -10 l-664 0 0 -1265 0 -1265 648 0 c842 0 1091 -13 1398 -75
322 -65 576 -195 709 -363 54 -67 136 -231 159 -318 26 -96 46 -260 46 -374 0
-452 -199 -763 -625 -975 -286 -143 -595 -205 -954 -192 -482 17 -886 187
-1351 570 -147 121 -387 372 -535 559 l-139 176 -41 -36 c-23 -21 -512 -496
-1088 -1056 l-1047 -1019 0 -79 0 -80 109 -121 c481 -537 1025 -952 1656
-1263 878 -432 1881 -644 2935 -621 1148 26 2077 316 2865 895 325 239 648
560 876 872 464 633 700 1430 676 2275 -4 116 -11 253 -17 305 -75 658 -301
1195 -717 1697 -172 208 -496 502 -727 659 -47 33 -86 63 -86 68 0 5 31 41 68
80 38 40 111 124 163 187 622 749 862 1412 819 2256 -16 309 -44 507 -106 763
-177 723 -573 1338 -1174 1819 -647 519 -1340 798 -2226 896 -131 15 -693 28
-824 19z"/>
</g>
</svg>
