<?xml version="1.0" standalone="no"?>
<!DOCTYPE svg PUBLIC "-//W3C//DTD SVG 20010904//EN"
 "http://www.w3.org/TR/2001/REC-SVG-20010904/DTD/svg10.dtd">
<svg version="1.0" xmlns="http://www.w3.org/2000/svg"
 width="936.000000pt" height="1280.000000pt" viewBox="0 0 936.000000 1280.000000"
 preserveAspectRatio="xMidYMid meet">
<metadata>
Created by potrace 1.15, written by Peter Selinger 2001-2017
</metadata>
<g transform="translate(0.000000,1280.000000) scale(0.100000,-0.100000)"
fill="#ffffff" stroke="none">
<path d="M1300 9230 l0 -3570 28 11 c86 34 780 274 902 312 593 187 1013 268
1545 297 700 39 1267 -123 1710 -490 68 -56 176 -178 233 -262 52 -76 118
-217 150 -318 100 -316 92 -752 -19 -1083 -169 -507 -614 -881 -1200 -1010
-181 -40 -290 -51 -504 -50 -359 1 -618 63 -936 224 -325 165 -601 389 -900
729 -68 77 -126 139 -130 138 -4 -2 -495 -473 -1092 -1048 l-1085 -1045 -1
-89 -1 -88 193 -192 c799 -798 1727 -1312 2802 -1555 433 -97 806 -136 1320
-136 388 1 595 14 924 61 890 126 1672 442 2346 948 245 184 622 542 797 756
595 732 903 1545 968 2555 41 652 -45 1302 -248 1860 -297 816 -863 1511
-1677 2055 -595 398 -1242 642 -1936 729 -205 26 -545 42 -664 31 -49 -5 -118
-9 -152 -9 l-63 -1 0 355 0 355 1634 0 c899 0 1637 3 1639 8 3 4 78 266 167
582 285 1014 613 2178 668 2373 l39 137 -3728 0 -3729 0 0 -3570z"/>
</g>
</svg>
