<?xml version="1.0" standalone="no"?>
<!DOCTYPE svg PUBLIC "-//W3C//DTD SVG 20010904//EN"
 "http://www.w3.org/TR/2001/REC-SVG-20010904/DTD/svg10.dtd">
<svg version="1.0" xmlns="http://www.w3.org/2000/svg"
 width="918.000000pt" height="1280.000000pt" viewBox="0 0 918.000000 1280.000000"
 preserveAspectRatio="xMidYMid meet">
<metadata>
Created by potrace 1.15, written by Peter Selinger 2001-2017
</metadata>
<g transform="translate(0.000000,1280.000000) scale(0.100000,-0.100000)"
fill="#ffffff" stroke="none">
<path d="M770 12795 c0 -3 -79 -308 -176 -678 -96 -370 -270 -1033 -385 -1473
l-209 -802 0 -111 0 -111 2440 0 c1498 0 2440 -4 2440 -9 0 -5 -192 -553 -426
-1218 -552 -1567 -1073 -3044 -1534 -4353 -203 -577 -536 -1521 -739 -2097
-537 -1524 -681 -1934 -681 -1939 0 -2 66 -4 148 -4 125 0 206 8 532 55 212
30 801 113 1310 185 1602 226 1821 258 1826 263 3 3 345 1066 760 2364 802
2508 775 2423 882 2758 39 121 555 1733 1146 3582 l1076 3362 0 115 0 116
-4205 0 c-2313 0 -4205 -2 -4205 -5z"/>
</g>
</svg>
