<?xml version="1.0" standalone="no"?>
<!DOCTYPE svg PUBLIC "-//W3C//DTD SVG 20010904//EN"
 "http://www.w3.org/TR/2001/REC-SVG-20010904/DTD/svg10.dtd">
<svg version="1.0" xmlns="http://www.w3.org/2000/svg"
 width="927.000000pt" height="1280.000000pt" viewBox="0 0 927.000000 1280.000000"
 preserveAspectRatio="xMidYMid meet">
<metadata>
Created by potrace 1.15, written by Peter Selinger 2001-2017
</metadata>
<g transform="translate(0.000000,1280.000000) scale(0.100000,-0.100000)"
fill="#ffffff" stroke="none">
<path d="M4295 12794 c-421 -31 -667 -68 -990 -151 -945 -242 -1845 -849
-2356 -1588 -334 -483 -512 -1001 -569 -1655 -80 -922 293 -1839 1097 -2696
68 -73 123 -134 123 -137 0 -3 -47 -39 -104 -81 -314 -229 -627 -525 -843
-797 -417 -526 -626 -1149 -650 -1934 -19 -631 98 -1186 354 -1688 323 -632
863 -1137 1621 -1516 591 -296 1246 -467 2037 -533 205 -17 897 -17 1095 0
635 55 1079 140 1550 299 662 222 1252 574 1680 1003 444 443 723 962 850
1577 122 588 101 1240 -56 1787 -201 699 -687 1330 -1444 1873 -2 2 59 68 136
146 321 325 534 618 723 994 237 474 341 972 328 1572 -13 611 -125 1088 -366
1568 -149 299 -336 549 -602 808 -567 551 -1342 918 -2259 1069 -333 55 -594
76 -985 80 -176 2 -342 2 -370 0z m605 -2784 c181 -46 395 -180 494 -309 102
-133 148 -283 148 -486 0 -144 -20 -246 -71 -370 -97 -235 -302 -446 -613
-631 -111 -66 -261 -144 -276 -144 -19 0 -204 106 -325 187 -142 94 -297 235
-376 342 -225 304 -254 716 -70 1001 50 77 176 209 253 264 116 82 268 146
399 167 96 15 343 3 437 -21z m-172 -4811 c425 -172 749 -393 947 -644 175
-223 255 -456 255 -742 0 -266 -73 -454 -248 -635 -275 -285 -699 -426 -1197
-396 -342 20 -671 161 -891 382 -135 137 -205 267 -239 451 -25 132 -16 345
20 480 47 180 164 390 301 542 106 120 315 279 534 410 94 56 370 203 383 203
5 0 65 -23 135 -51z"/>
</g>
</svg>
