<?xml version="1.0" standalone="no"?>
<!DOCTYPE svg PUBLIC "-//W3C//DTD SVG 20010904//EN"
 "http://www.w3.org/TR/2001/REC-SVG-20010904/DTD/svg10.dtd">
<svg version="1.0" xmlns="http://www.w3.org/2000/svg"
 width="896.000000pt" height="1280.000000pt" viewBox="0 0 896.000000 1280.000000"
 preserveAspectRatio="xMidYMid meet">
<metadata>
Created by potrace 1.15, written by Peter Selinger 2001-2017
</metadata>
<g transform="translate(0.000000,1280.000000) scale(0.100000,-0.100000)"
fill="#ffffff" stroke="none">
<path d="M4215 12793 c-1215 -64 -2218 -492 -2997 -1277 -636 -641 -1014
-1364 -1157 -2211 -45 -266 -55 -413 -55 -775 0 -359 11 -526 55 -825 136
-944 524 -1760 1128 -2379 576 -588 1237 -906 2111 -1011 160 -20 643 -31 748
-18 39 5 72 7 72 4 0 -10 -297 -390 -439 -562 -304 -367 -572 -658 -942 -1024
-490 -484 -874 -817 -1557 -1349 l-204 -159 179 -68 c98 -37 644 -244 1213
-459 1168 -441 1325 -501 1600 -606 165 -63 205 -74 256 -74 l61 0 294 308
c1099 1149 1718 1874 2340 2737 702 974 1235 1921 1564 2780 519 1352 615
2758 269 3904 -124 411 -306 796 -546 1154 -270 403 -650 801 -1043 1092 -745
552 -1656 832 -2680 823 -115 -1 -237 -3 -270 -5z m533 -2948 c361 -71 638
-269 851 -609 193 -309 253 -703 170 -1116 -93 -468 -424 -877 -844 -1043
-146 -58 -273 -80 -460 -81 -376 0 -659 119 -905 381 -209 223 -346 509 -391
814 -16 108 -16 359 0 469 38 270 139 510 301 719 223 286 494 442 840 485 76
9 358 -3 438 -19z"/>
</g>
</svg>
